{
.appVersion = "3151";
.formatVersion = 3;
customParameters = (
{
name = vendorID;
value = "M+  ";
},
{
name = panose;
value = (
2,
11,
4,
3,
2,
2,
3,
2,
2,
7
);
},
{
name = unicodeRanges;
value = (
0,
1,
2,
3,
4,
5,
6,
7,
9,
11,
24,
29,
30,
31,
32,
33,
35,
36,
37,
38,
39,
40,
42,
43,
44,
45,
46,
47,
48,
49,
50,
54,
57,
59,
61,
62,
65,
68,
89
);
},
{
name = codePageRanges;
value = (
"1252",
"1250",
"1251",
"1253",
"1254",
"1255",
"1257",
"1258",
"932",
"950",
"bit 29",
"bit 30",
"869",
"866",
"865",
"863",
"862",
"861",
"860",
"857",
"855",
"852",
"775",
"737",
"850",
"437"
);
},
{
name = fsType;
value = (
);
}
);
date = "2015-05-28 17:10:30 +0000";
familyName = "Yaku Han RP";
featurePrefixes = (
{
automatic = 1;
code = "languagesystem DFLT dflt;
";
name = Languagesystems;
}
);
features = (
{
automatic = 1;
code = "feature vert;
feature vrt2;
";
tag = aalt;
},
{
automatic = 1;
code = "sub comma-han by comma-han.vert;
sub period-han by period-han.vert;
sub colon.full by colon.full.vert;
sub anglebracketleft by anglebracketleft.vert;
sub anglebracketright by anglebracketright.vert;
sub blacklenticularbracketleft by blacklenticularbracketleft.vert;
sub blacklenticularbracketright by blacklenticularbracketright.vert;
sub cornerbracketleft by cornerbracketleft.vert;
sub cornerbracketright by cornerbracketright.vert;
sub dblanglebracketleft by dblanglebracketleft.vert;
sub dblanglebracketright by dblanglebracketright.vert;
sub tortoiseshellbracketleft by tortoiseshellbracketleft.vert;
sub tortoiseshellbracketright by tortoiseshellbracketright.vert;
sub whitecornerbracketleft by whitecornerbracketleft.vert;
sub whitecornerbracketright by whitecornerbracketright.vert;
sub whitelenticularbracketleft by whitelenticularbracketleft.vert;
sub whitelenticularbracketright by whitelenticularbracketright.vert;
sub braceleft.full by braceleft.full.vert;
sub braceright.full by braceright.full.vert;
sub bracketleft.full by bracketleft.full.vert;

glyphs = (
{
glyphname = "comma-han";
lastChange = "2023-08-27 07:24:43 +0000";
layers = (
{
layerId = m01;
shapes = (
{
closed = 1;
nodes = (
(280,-37,o),
(288,-30,qs),
(307,-14,o),
(291,6,qs),
(207,102,o),
(121,183,qs),
(114,190,o),
(92,190,o),
(76,176,o),
(76,155,o),
(84,148,qs),
(174,63,o),
(252,-26,qs),
(259,-34,o)
);
}
);
vertWidth = 1000;
width = 1000;
}
);
note = uni3001;
unicode = 12289;
},
{
glyphname = "comma-han.vert";
lastChange = "2023-08-27 07:24:43 +0000";
layers = (
{
layerId = m01;
shapes = (
{
closed = 1;
nodes = (
(906,528,o),
(914,535,qs),
(933,551,o),
(917,571,qs),
(833,667,o),
(747,748,q),
(740,756,o),
(718,756,o),
(710,748,qs),
(702,741,o),
(702,720,o),
(710,713,qs),
(800,628,o),
(878,539,qs),
(885,531,o)
);
}
);
vertWidth = 1000;
width = 1000;
}
);
note = glyph08466;
},
{
glyphname = "period-han";
lastChange = "2023-08-27 07:24:43 +0000";
layers = (
{
layerId = m01;
shapes = (
{
closed = 1;
nodes = (
(324,33,o),
(261,-29,o),
(173,-29,o),
(111,33,o),
(111,121,o),
(173,184,o),
(261,184,o),
(324,121,o)
);
},
{
closed = 1;
nodes = (
(364,138,o),
(278,224,o),
(156,224,o),
(71,138,o),
(71,16,o),
(156,-69,o),
(278,-69,o),
(364,16,o)
);
}
);
vertWidth = 1000;
width = 1000;
}
);
note = uni3002;
unicode = 12290;
},
{
glyphname = "period-han.vert";
lastChange = "2023-08-27 07:24:43 +0000";
layers = (
{
layerId = m01;
shapes = (
{
closed = 1;
nodes = (
(889,598,o),
(826,536,o),
(738,536,o),
(676,598,o),
(676,686,o),
(738,749,o),
(826,749,o),
(889,686,o)
);
},
{
closed = 1;
nodes = (
(929,703,o),
(843,789,o),
(721,789,o),
(636,703,o),
(636,581,o),
(721,496,o),
(843,496,o),
(929,581,o)
);
}
);
vertWidth = 1000;
width = 1000;
}
);
note = glyph08467;
},
{
glyphname = "dot-kata";
lastChange = "2023-08-27 07:24:43 +0000";
layers = (
{
layerId = m01;
shapes = (
{
closed = 1;
nodes = (
(532,327,qs),
(532,393,ls),
(532,406,o),
(513,425,o),
(500,425,qs),
(486,425,o),
(468,406,o),
(468,393,qs),
(468,327,ls),
(468,314,o),
(487,295,o),
(513,295,o),
(532,314,o)
);
}
);
vertWidth = 1000;
width = 1000;
}
);
note = uni30FB;
unicode = 12539;
},
{
glyphname = hyphenationpoint;
lastChange = "2023-08-27 07:24:43 +0000";
layers = (
{
layerId = m01;
shapes = (
{
closed = 1;
nodes = (
(189,253,qs),
(189,327,ls),
(189,339,o),
(173,355,o),
(149,355,o),
(133,339,o),
(133,327,qs),
(133,253,ls),
(133,241,o),
(149,225,o),
(173,225,o),
(189,241,o)
);
}
);
vertWidth = 1000;
width = 322;
}
);
note = uni2027;
unicode = 8231;
},
{
glyphname = colon.full;
lastChange = "2023-08-27 07:24:43 +0000";
layers = (
{
layerId = m01;
shapes = (
{
closed = 1;
nodes = (
(528,112,qs),
(528,178,ls),
(528,190,o),
(512,207,o),
(488,207,o),
(472,190,o),
(472,178,qs),
(472,112,ls),
(472,100,o),
(488,83,o),
(512,83,o),
(528,100,o)
);
},
{
closed = 1;
nodes = (
(528,542,qs),
(528,608,ls),
(528,620,o),
(512,637,o),
(488,637,o),
(472,620,o),
(472,608,qs),
(472,542,ls),
(472,530,o),
(488,513,o),
(512,513,o),
(528,530,o)
);
}
);
vertWidth = 1000;
width = 1000;
}
);
note = uniFF1A;
unicode = 65306;
},
{
glyphname = exclam.full;
lastChange = "2023-08-27 07:24:43 +0000";
layers = (
{
layerId = m01;
shapes = (
{
closed = 1;
nodes = (
(524,220,qs),
(528,702,ls),
(528,714,o),
(512,730,o),
(488,730,o),
(472,714,o),
(472,702,qs),
(476,220,ls),
(476,210,o),
(490,197,o),
(510,197,o),
(524,210,o)
);
},
{
closed = 1;
nodes = (
(473,90,qs),
(473,27,ls),
(473,16,o),
(489,0,o),
(511,0,o),
(527,16,o),
(527,27,qs),
(527,90,ls),
(527,101,o),
(511,117,o),
(489,117,o),
(473,101,o)
);
}
);
vertWidth = 1000;
width = 1000;
}
);
note = uniFF01;
unicode = 65281;
},
{
glyphname = question.full;
lastChange = "2023-08-27 07:24:43 +0000";
layers = (
{
layerId = m01;
shapes = (
{
closed = 1;
nodes = (
(500,696,qs),
(605,696,o),
(715,635,o),
(715,580,qs),
(715,550,o),
(696,503,o),
(652,462,o),
(620,440,o),
(587,420,qs),
(552,399,o),
(515,372,o),
(462,323,o),
(434,262,o),
(430,224,qs),
(429,213,o),
(443,198,o),
(453,198,qs),
(464,198,o),
(479,213,o),
(480,223,qs),
(484,256,o),
(508,307,o),
(555,350,o),
(590,375,o),
(624,395,qs),
(660,417,o),
(696,442,o),
(745,489,o),
(767,547,o),
(767,583,qs),
(767,656,o),
(630,740,o),
(505,740,qs),
(386,740,o),
(276,711,qs),
(267,709,o),
(258,692,o),
(260,683,qs),
(265,662,o),
(286,667,qs),
(393,696,o)
);
},
{
closed = 1;
nodes = (
(427,90,qs),
(427,27,ls),
(427,16,o),
(442,0,o),
(464,0,o),
(480,16,o),
(480,27,qs),
(480,90,ls),
(480,101,o),
(464,117,o),
(442,117,o),
(427,101,o)
);
}
);
vertWidth = 1000;
width = 1000;
}
);
note = uniFF1F;
unicode = 65311;
},
{
glyphname = semicolon.full;
lastChange = "2023-08-27 07:24:43 +0000";
layers = (
{
layerId = m01;
shapes = (
{
closed = 1;
nodes = (
(466,-4,qs),
(537,178,ls),
(541,189,o),
(528,207,o),
(517,207,qs),
(487,207,o),
(477,178,qs),
(418,-4,ls),
(415,-12,o),
(425,-27,o),
(434,-27,qs),
(457,-27,o)
);
},
{
closed = 1;
nodes = (
(477,608,qs),
(477,542,ls),
(477,530,o),
(493,513,o),
(517,513,o),
(533,530,o),
(533,542,qs),
(533,608,ls),
(533,620,o),
(517,637,o),
(493,637,o),
(477,620,o)
);
}
);
vertWidth = 1000;
width = 1000;
}
);
note = uniFF1B;
unicode = 65307;
},
{
glyphname = colon.full.vert;
lastChange = "2023-08-27 07:24:43 +0000";
layers = (
{
layerId = m01;
shapes = (
{
closed = 1;
nodes = (
(528,112,qs),
(528,178,ls),
(528,190,o),
(512,207,o),
(488,207,o),
(472,190,o),
(472,178,qs),
(472,112,ls),
(472,100,o),
(488,83,o),
(512,83,o),
(528,100,o)
);
},
{
closed = 1;
nodes = (
(528,542,qs),
(528,608,ls),
(528,620,o),
(512,637,o),
(488,637,o),
(472,620,o),
(472,608,qs),
(472,542,ls),
(472,530,o),
(488,513,o),
(512,513,o),
(528,530,o)
);
}
);
vertWidth = 1000;
width = 1000;
}
);
note = glyph08518;
},
{
glyphname = angleLeft;
lastChange = "2023-08-27 07:24:43 +0000";
layers = (
{
layerId = m01;
shapes = (
{
closed = 1;
nodes = (
(324,-125,qs),
(333,-125,o),
(342,-110,o),
(338,-103,qs),
(78,315,ls),
(73,322,o),
(78,330,qs),
(338,748,ls),
(342,755,o),
(333,770,o),
(324,770,qs),
(299,770,o),
(284,748,qs),
(52,371,ls),
(38,349,o),
(38,296,o),
(52,274,qs),
(284,-103,ls),
(299,-125,o)
);
}
);
vertWidth = 1000;
width = 383;
}
);
note = angleleft;
unicode = 9001;
},
{
glyphname = angleRight;
lastChange = "2023-08-27 07:24:43 +0000";
layers = (
{
layerId = m01;
shapes = (
{
closed = 1;
nodes = (
(50,-125,o),
(58,-125,qs),
(84,-125,o),
(98,-103,qs),
(331,274,ls),
(345,296,o),
(345,349,o),
(331,371,qs),
(98,748,ls),
(84,770,o),
(58,770,qs),
(50,770,o),
(41,755,o),
(45,748,qs),
(304,330,l),
(310,322,o),
(304,315,q),
(45,-103,ls),
(41,-110,o)
);
}
);
vertWidth = 1000;
width = 383;
}
);
note = angleright;
unicode = 9002;
},
{
glyphname = anglebracketleft;
lastChange = "2023-08-27 07:24:43 +0000";
layers = (
{
layerId = m01;
shapes = (
{
closed = 1;
nodes = (
(883,808,o),
(875,808,qs),
(850,808,o),
(835,785,qs),
(601,408,ls),
(588,386,o),
(588,334,o),
(601,312,qs),
(835,-65,ls),
(849,-87,o),
(875,-87,qs),
(883,-87,o),
(891,-72,o),
(887,-65,qs),
(629,353,ls),
(624,360,o),
(629,367,qs),
(887,785,ls),
(891,792,o)
);
}
);
vertWidth = 1000;
width = 1000;
}
);
note = uni3008;
unicode = 12296;
},
{
glyphname = anglebracketright;
lastChange = "2023-08-27 07:24:43 +0000";
layers = (
{
layerId = m01;
shapes = (
{
closed = 1;
nodes = (
(117,-88,o),
(125,-88,qs),
(150,-88,o),
(165,-65,qs),
(399,312,ls),
(412,334,o),
(412,386,o),
(399,408,qs),
(165,785,ls),
(151,807,o),
(125,807,qs),
(117,807,o),
(109,792,o),
(113,785,qs),
(371,367,ls),
(376,360,o),
(371,353,qs),
(113,-65,ls),
(109,-72,o)
);
}
);
vertWidth = 1000;
width = 1000;
}
);
note = uni3009;
unicode = 12297;
},
{
glyphname = blacklenticularbracketleft;
lastChange = "2023-08-27 07:24:43 +0000";
layers = (
{
layerId = m01;
shapes = (
{
closed = 1;
nodes = (
(861,-88,o),
(873,-58,o),
(862,-47,qs),
(785,38,o),
(702,249,o),
(702,471,o),
(785,682,o),
(862,767,qs),
(873,778,o),
(861,808,o),
(845,808,qs),
(677,808,ls),
(654,808,o),
(620,774,o),
(620,751,qs),
(620,-31,ls),
(620,-54,o),
(654,-88,o),
(677,-88,qs),
(845,-88,ls)
);
}
);
vertWidth = 1000;
width = 1000;
}
);
note = uni3010;
unicode = 12304;
},
{
glyphname = blacklenticularbracketright;
lastChange = "2023-08-27 07:24:43 +0000";
layers = (
{
layerId = m01;
shapes = (
{
closed = 1;
nodes = (
(346,-88,o),
(380,-54,o),
(380,-31,qs),
(380,751,ls),
(380,774,o),
(346,807,o),
(323,807,qs),
(155,807,ls),
(139,807,o),
(127,778,o),
(138,767,qs),
(215,682,o),
(298,471,o),
(298,249,o),
(215,38,o),
(138,-47,qs),
(127,-58,o),
(139,-88,o),
(155,-88,qs),
(323,-88,ls)
);
}
);
vertWidth = 1000;
width = 1000;
}
);
note = uni3011;
unicode = 12305;
},
{
glyphname = braceleft.full;
lastChange = "2023-08-27 07:24:43 +0000";
layers = (
{
layerId = m01;
shapes = (
{
closed = 1;
nodes = (
(652,506,qs),
(652,652,ls),
(652,721,o),
(698,768,o),
(750,768,qs),
(873,768,ls),
(881,768,o),
(893,780,o),
(893,796,o),
(881,808,o),
(873,808,qs),
(733,808,ls),
(666,808,o),
(605,739,o),
(605,662,qs),
(605,508,ls),
(605,448,o),
(561,381,o),
(523,381,qs),
(468,381,ls),
(459,381,o),
(447,369,o),
(447,351,o),
(459,339,o),
(468,339,qs),
(523,339,ls),
(561,339,o),
(605,272,o),
(605,212,qs),
(605,58,ls),
(605,-19,o),
(666,-88,o),
(733,-88,qs),
(873,-88,ls),
(881,-88,o),
(893,-76,o),
(893,-60,o),
(881,-48,o),
(873,-48,qs),
(750,-48,ls),
(698,-48,o),
(652,-1,o),
(652,68,qs),
(652,214,ls),
(652,322,o),
(581,358,q),
(580,358,o),
(580,362,o),
(581,362,q),
(652,398,o)
);
}
);
vertWidth = 1000;
width = 1000;
}
);
note = uniFF5B;
unicode = 65371;
},
{
glyphname = braceright.full;
lastChange = "2023-08-27 07:24:43 +0000";
layers = (
{
layerId = m01;
shapes = (
{
closed = 1;
nodes = (
(348,214,qs),
(348,68,ls),
(348,-1,o),
(302,-48,o),
(250,-48,qs),
(127,-48,ls),
(119,-48,o),
(107,-60,o),
(107,-76,o),
(119,-88,o),
(127,-88,qs),
(267,-88,ls),
(334,-88,o),
(395,-19,o),
(395,58,qs),
(395,212,ls),
(395,272,o),
(439,339,o),
(477,339,qs),
(532,339,ls),
(541,339,o),
(553,351,o),
(553,369,o),
(541,381,o),
(532,381,qs),
(477,381,ls),
(439,381,o),
(395,448,o),
(395,508,qs),
(395,662,ls),
(395,739,o),
(334,808,o),
(267,808,qs),
(127,808,ls),
(119,808,o),
(107,796,o),
(107,780,o),
(119,768,o),
(127,768,qs),
(250,768,ls),
(302,768,o),
(348,721,o),
(348,652,qs),
(348,506,ls),
(348,398,o),
(419,362,q),
(420,362,o),
(420,358,o),
(419,358,q),
(348,322,o)
);
}
);
vertWidth = 1000;
width = 1000;
}
);
note = uniFF5D;
unicode = 65373;
},
{
glyphname = cornerbracketleft;
lastChange = "2023-08-27 07:24:43 +0000";
layers = (
{
layerId = m01;
shapes = (
{
closed = 1;
nodes = (
(612,92,qs),
(612,772,ls),
(612,780,o),
(620,780,qs),
(911,780,ls),
(920,780,o),
(932,792,o),
(932,810,o),
(920,822,o),
(911,822,qs),
(622,822,ls),
(599,822,o),
(565,788,o),
(565,765,qs),
(565,92,ls),
(565,82,o),
(578,68,o),
(598,68,o),
(612,82,o)
);
}
);
vertWidth = 1000;
width = 1000;
}
);
note = uni300C;
unicode = 12300;
},
{
glyphname = cornerbracketright;
lastChange = "2023-08-27 07:24:43 +0000";
layers = (
{
layerId = m01;
shapes = (
{
closed = 1;
nodes = (
(401,-102,o),
(435,-68,o),
(435,-45,qs),
(435,628,ls),
(435,638,o),
(422,652,o),
(402,652,o),
(388,638,o),
(388,628,qs),
(388,-52,ls),
(388,-60,o),
(380,-60,qs),
(89,-60,ls),
(80,-60,o),
(68,-72,o),
(68,-90,o),
(80,-102,o),
(89,-102,qs),
(378,-102,ls)
);
}
);
vertWidth = 1000;
width = 1000;
}
);
note = uni300D;
unicode = 12301;
},
{
glyphname = dblanglebracketleft;
lastChange = "2023-08-27 07:24:43 +0000";
layers = (
{
layerId = m01;
shapes = (
{
closed = 1;
nodes = (
(883,808,o),
(875,808,qs),
(851,808,o),
(837,786,qs),
(603,408,ls),
(590,386,o),
(590,334,o),
(603,312,qs),
(837,-66,ls),
(851,-88,o),
(875,-88,qs),
(883,-88,o),
(892,-73,o),
(887,-66,qs),
(629,353,ls),
(624,360,o),
(629,367,qs),
(887,786,ls),
(892,793,o)
);
},
{
closed = 1;
nodes = (
(739,-88,qs),
(747,-88,o),
(756,-73,o),
(751,-66,qs),
(492,353,ls),
(487,360,o),
(492,367,qs),
(751,786,ls),
(756,793,o),
(747,808,o),
(739,808,qs),
(714,808,o),
(700,786,qs),
(466,408,ls),
(452,386,o),
(452,334,o),
(466,312,qs),
(700,-66,ls),
(714,-88,o)
);
}
);
vertWidth = 1000;
width = 1000;
}
);
note = uni300A;
unicode = 12298;
},
{
glyphname = dblanglebracketright;
lastChange = "2023-08-27 07:24:43 +0000";
layers = (
{
layerId = m01;
shapes = (
{
closed = 1;
nodes = (
(117,-88,o),
(125,-88,qs),
(149,-88,o),
(163,-66,qs),
(397,312,ls),
(410,334,o),
(410,386,o),
(397,408,qs),
(163,786,ls),
(149,808,o),
(125,808,qs),
(117,808,o),
(108,793,o),
(113,786,qs),
(371,367,ls),
(376,360,o),
(371,353,qs),
(113,-66,ls),
(108,-73,o)
);
},
{
closed = 1;
nodes = (
(244,793,o),
(249,786,qs),
(508,367,ls),
(513,360,o),
(508,353,qs),
(249,-66,ls),
(244,-73,o),
(253,-88,o),
(261,-88,qs),
(286,-88,o),
(300,-66,qs),
(534,312,ls),
(548,334,o),
(548,386,o),
(534,408,qs),
(300,786,ls),
(286,808,o),
(261,808,qs),
(253,808,o)
);
}
);
vertWidth = 1000;
width = 1000;
}
);
note = uni300B;
unicode = 12299;
},
{
glyphname = tortoiseshellbracketleft;
lastChange = "2023-08-27 07:24:43 +0000";
layers = (
{
layerId = m01;
shapes = (
{
closed = 1;
nodes = (
(864,-87,o),
(877,-78,o),
(877,-71,qs),
(877,-50,o),
(857,-43,qs),
(601,50,ls),
(593,53,o),
(593,61,qs),
(593,659,ls),
(593,667,o),
(601,670,qs),
(857,763,ls),
(877,770,o),
(877,791,qs),
(877,798,o),
(864,807,o),
(857,805,qs),
(600,713,ls),
(576,705,o),
(547,663,o),
(547,637,qs),
(547,83,ls),
(547,57,o),
(576,15,o),
(600,7,qs),
(857,-85,ls)
);
}
);
vertWidth = 1000;
width = 1000;
}
);
note = uni3014;
unicode = 12308;
},
{
glyphname = tortoiseshellbracketright;
lastChange = "2023-08-27 07:24:43 +0000";
layers = (
{
layerId = m01;
shapes = (
{
closed = 1;
nodes = (
(123,-50,o),
(123,-71,qs),
(123,-78,o),
(136,-87,o),
(143,-85,qs),
(400,7,ls),
(424,15,o),
(453,57,o),
(453,83,qs),
(453,637,ls),
(453,663,o),
(424,705,o),
(400,713,qs),
(143,805,ls),
(136,807,o),
(123,798,o),
(123,791,qs),
(123,770,o),
(143,763,qs),
(399,670,ls),
(407,667,o),
(407,659,qs),
(407,61,ls),
(407,53,o),
(399,50,qs),
(143,-43,ls)
);
}
);
vertWidth = 1000;
width = 1000;
}
);
note = uni3015;
unicode = 12309;
},
{
glyphname = whitecornerbracketleft;
lastChange = "2023-08-27 07:24:43 +0000";
layers = (
{
layerId = m01;
shapes = (
{
closed = 1;
nodes = (
(574,788,qs),
(890,788,ls),
(898,788,o),
(898,780,qs),
(898,725,ls),
(898,717,o),
(890,717,qs),
(693,717,ls),
(670,717,o),
(637,683,o),
(637,660,qs),
(637,77,ls),
(637,68,o),
(628,68,qs),
(574,68,ls),
(565,68,o),
(565,77,qs),
(565,780,ls),
(565,788,o)
);
},
{
closed = 1;
nodes = (
(636,35,o),
(670,69,o),
(670,92,qs),
(670,675,ls),
(670,683,o),
(679,683,qs),
(875,683,ls),
(898,683,o),
(932,717,o),
(932,740,qs),
(932,765,ls),
(932,788,o),
(898,822,o),
(875,822,qs),
(588,822,ls),
(565,822,o),
(532,788,o),
(532,765,qs),
(532,92,ls),
(532,69,o),
(565,35,o),
(588,35,qs),
(613,35,ls)
);
}
);
vertWidth = 1000;
width = 1000;
}
);
note = uni300E;
unicode = 12302;
},
{
glyphname = whitecornerbracketright;
lastChange = "2023-08-27 07:24:43 +0000";
layers = (
{
layerId = m01;
shapes = (
{
closed = 1;
nodes = (
(110,3,qs),
(307,3,ls),
(330,3,o),
(363,37,o),
(363,60,qs),
(363,643,ls),
(363,652,o),
(372,652,qs),
(426,652,ls),
(435,652,o),
(435,643,qs),
(435,-60,ls),
(435,-68,o),
(426,-68,qs),
(110,-68,ls),
(102,-68,o),
(102,-60,qs),
(102,-5,ls),
(102,3,o)
);
},
{
closed = 1;
nodes = (
(435,-102,o),
(468,-68,o),
(468,-45,qs),
(468,628,ls),
(468,651,o),
(435,685,o),
(412,685,qs),
(387,685,ls),
(364,685,o),
(330,651,o),
(330,628,qs),
(330,45,ls),
(330,37,o),
(321,37,qs),
(125,37,ls),
(102,37,o),
(68,3,o),
(68,-20,qs),
(68,-45,ls),
(68,-68,o),
(102,-102,o),
(125,-102,qs),
(412,-102,ls)
);
}
);
vertWidth = 1000;
width = 1000;
}
);
note = uni300F;
unicode = 12303;
},
{
glyphname = whitelenticularbracketleft;
lastChange = "2023-08-27 07:24:43 +0000";
layers = (
{
layerId = m01;
shapes = (
{
closed = 1;
nodes = (
(629,774,qs),
(824,774,ls),
(832,774,o),
(827,767,qs),
(688,587,o),
(688,133,o),
(827,-47,q),
(828,-49,o),
(826,-54,o),
(824,-54,qs),
(629,-54,ls),
(620,-54,o),
(620,-46,qs),
(620,766,ls),
(620,774,o)
);
},
{
closed = 1;
nodes = (
(861,-88,o),
(874,-57,o),
(863,-44,qs),
(722,131,o),
(722,360,qs),
(722,590,o),
(863,765,qs),
(874,778,o),
(861,808,o),
(845,808,qs),
(643,808,ls),
(620,808,o),
(587,774,o),
(587,751,qs),
(587,-31,ls),
(587,-54,o),
(620,-88,o),
(643,-88,qs),
(845,-88,ls)
);
}
);
vertWidth = 1000;
width = 1000;
}
);
note = uni3016;
unicode = 12310;
},
{
glyphname = whitelenticularbracketright;
lastChange = "2023-08-27 07:24:43 +0000";
layers = (
{
layerId = m01;
shapes = (
{
closed = 1;
nodes = (
(312,587,o),
(173,767,q),
(172,769,o),
(174,774,o),
(176,774,qs),
(371,774,ls),
(380,774,o),
(380,766,qs),
(380,-46,ls),
(380,-54,o),
(371,-54,qs),
(176,-54,ls),
(168,-54,o),
(173,-47,qs),
(312,133,o)
);
},
{
closed = 1;
nodes = (
(380,-88,o),
(413,-54,o),
(413,-31,qs),
(413,751,ls),
(413,774,o),
(380,808,o),
(357,808,qs),
(155,808,ls),
(139,808,o),
(126,777,o),
(137,764,qs),
(278,589,o),
(278,360,qs),
(278,130,o),
(137,-45,qs),
(126,-58,o),
(139,-88,o),
(155,-88,qs),
(357,-88,ls)
);
}
);
vertWidth = 1000;
width = 1000;
}
);
note = uni3017;
unicode = 12311;
},
{
glyphname = anglebracketleft.vert;
lastChange = "2023-08-27 07:24:43 +0000";
layers = (
{
layerId = m01;
shapes = (
{
closed = 1;
nodes = (
(948,-23,o),
(948,-15,qs),
(948,10,o),
(925,25,qs),
(548,259,ls),
(526,272,o),
(474,272,o),
(452,259,qs),
(75,25,ls),
(53,11,o),
(53,-15,qs),
(53,-23,o),
(68,-31,o),
(75,-27,qs),
(493,231,ls),
(500,236,o),
(507,231,qs),
(925,-27,ls),
(932,-31,o)
);
}
);
vertWidth = 1000;
width = 1000;
}
);
note = glyph08468;
},
{
glyphname = anglebracketright.vert;
lastChange = "2023-08-27 07:24:43 +0000";
layers = (
{
layerId = m01;
shapes = (
{
closed = 1;
nodes = (
(52,743,o),
(52,735,qs),
(52,710,o),
(75,695,qs),
(452,461,ls),
(474,448,o),
(526,448,o),
(548,461,qs),
(925,695,ls),
(947,709,o),
(947,735,qs),
(947,743,o),
(932,751,o),
(925,747,qs),
(507,489,ls),
(500,484,o),
(493,489,qs),
(75,747,ls),
(68,751,o)
);
}
);
vertWidth = 1000;
width = 1000;
}
);
note = glyph08469;
},
{
glyphname = blacklenticularbracketleft.vert;
lastChange = "2023-08-27 07:24:43 +0000";
layers = (
{
layerId = m01;
shapes = (
{
closed = 1;
nodes = (
(52,-1,o),
(82,-13,o),
(93,-2,qs),
(178,75,o),
(389,158,o),
(611,158,o),
(822,75,o),
(907,-2,qs),
(918,-13,o),
(948,-1,o),
(948,15,qs),
(948,183,ls),
(948,206,o),
(914,240,o),
(891,240,qs),
(109,240,ls),
(86,240,o),
(52,206,o),
(52,183,qs),
(52,15,ls)
);
}
);
vertWidth = 1000;
width = 1000;
}
);
note = glyph08476;
},
{
glyphname = blacklenticularbracketright.vert;
lastChange = "2023-08-27 07:24:43 +0000";
layers = (
{
layerId = m01;
shapes = (
{
closed = 1;
nodes = (
(52,514,o),
(86,480,o),
(109,480,qs),
(891,480,ls),
(914,480,o),
(947,514,o),
(947,537,qs),
(947,705,ls),
(947,721,o),
(918,733,o),
(907,722,qs),
(822,645,o),
(611,562,o),
(389,562,o),
(178,645,o),
(93,722,qs),
(82,733,o),
(52,721,o),
(52,705,qs),
(52,537,ls)
);
}
);
vertWidth = 1000;
width = 1000;
}
);
note = glyph08477;
},
{
glyphname = bracketleft.full;
lastChange = "2023-08-27 07:24:43 +0000";
layers = (
{
layerId = m01;
shapes = (
{
closed = 1;
nodes = (
(865,-88,o),
(877,-76,o),
(877,-60,o),
(865,-48,o),
(857,-48,qs),
(602,-48,ls),
(593,-48,o),
(593,-39,qs),
(593,759,ls),
(593,768,o),
(602,768,qs),
(857,768,ls),
(865,768,o),
(877,780,o),
(877,796,o),
(865,808,o),
(857,808,qs),
(603,808,ls),
(580,808,o),
(547,774,o),
(547,751,qs),
(547,-31,ls),
(547,-54,o),
(580,-88,o),
(603,-88,qs),
(857,-88,ls)
);
}
);
vertWidth = 1000;
width = 1000;
}
);
note = uniFF3B;
unicode = 65339;
},
{
glyphname = bracketright.full;
lastChange = "2023-08-27 07:24:43 +0000";
layers = (
{
layerId = m01;
shapes = (
{
closed = 1;
nodes = (
(135,-48,o),
(123,-60,o),
(123,-76,o),
(135,-88,o),
(143,-88,qs),
(397,-88,ls),
(420,-88,o),
(453,-54,o),
(453,-31,qs),
(453,751,ls),
(453,774,o),
(420,807,o),
(397,807,qs),
(143,807,ls),
(135,807,o),
(123,795,o),
(123,779,o),
(135,767,o),
(143,767,qs),
(398,767,ls),
(407,767,o),
(407,759,qs),
(407,-39,ls),
(407,-48,o),
(398,-48,qs),
(143,-48,ls)
);
}
);
vertWidth = 1000;
width = 1000;
}
);
note = uniFF3D;
unicode = 65341;
},
{
glyphname = cornerbracketleft.vert;
lastChange = "2023-08-27 07:24:43 +0000";
layers = (
{
layerId = m01;
shapes = (
{
closed = 1;
nodes = (
(232,248,qs),
(912,248,ls),
(920,248,o),
(920,240,qs),
(920,-51,ls),
(920,-60,o),
(932,-72,o),
(950,-72,o),
(962,-60,o),
(962,-51,qs),
(962,238,ls),
(962,261,o),
(928,295,o),
(905,295,qs),
(232,295,ls),
(222,295,o),
(208,282,o),
(208,262,o),
(222,248,o)
);
}
);
vertWidth = 1000;
width = 1000;
}
);
note = glyph08472;
},
{
glyphname = cornerbracketright.vert;
lastChange = "2023-08-27 07:24:43 +0000";
layers = (
{
layerId = m01;
shapes = (
{
closed = 1;
nodes = (
(38,459,o),
(72,425,o),
(95,425,qs),
(768,425,ls),
(778,425,o),
(792,438,o),
(792,458,o),
(778,472,o),
(768,472,qs),
(88,472,ls),
(80,472,o),
(80,480,qs),
(80,771,ls),
(80,780,o),
(68,792,o),
(50,792,o),
(38,780,o),
(38,771,qs),
(38,482,ls)
);
}
);
vertWidth = 1000;
width = 1000;
}
);
note = glyph08473;
},
{
glyphname = dblanglebracketleft.vert;
lastChange = "2023-08-27 07:24:43 +0000";
layers = (
{
layerId = m01;
shapes = (
{
closed = 1;
nodes = (
(948,-23,o),
(948,-15,qs),
(948,9,o),
(926,23,qs),
(548,257,ls),
(526,270,o),
(474,270,o),
(452,257,qs),
(74,23,ls),
(52,9,o),
(52,-15,qs),
(52,-23,o),
(67,-32,o),
(74,-27,qs),
(493,231,ls),
(500,236,o),
(507,231,qs),
(926,-27,ls),
(933,-32,o)
);
},
{
closed = 1;
nodes = (
(52,121,qs),
(52,113,o),
(67,104,o),
(74,109,qs),
(493,368,ls),
(500,373,o),
(507,368,qs),
(926,109,ls),
(933,104,o),
(948,113,o),
(948,121,qs),
(948,146,o),
(926,160,qs),
(548,394,ls),
(526,408,o),
(474,408,o),
(452,394,qs),
(74,160,ls),
(52,146,o)
);
}
);
vertWidth = 1000;
width = 1000;
}
);
note = glyph08470;
},
{
glyphname = dblanglebracketright.vert;
lastChange = "2023-08-27 07:24:43 +0000";
layers = (
{
layerId = m01;
shapes = (
{
closed = 1;
nodes = (
(52,743,o),
(52,735,qs),
(52,711,o),
(74,697,qs),
(452,463,ls),
(474,450,o),
(526,450,o),
(548,463,qs),
(926,697,ls),
(948,711,o),
(948,735,qs),
(948,743,o),
(933,752,o),
(926,747,qs),
(507,489,ls),
(500,484,o),
(493,489,qs),
(74,747,ls),
(67,752,o)
);
},
{
closed = 1;
nodes = (
(933,616,o),
(926,611,qs),
(507,352,ls),
(500,347,o),
(493,352,qs),
(74,611,ls),
(67,616,o),
(52,607,o),
(52,599,qs),
(52,574,o),
(74,560,qs),
(452,326,ls),
(474,312,o),
(526,312,o),
(548,326,qs),
(926,560,ls),
(948,574,o),
(948,599,qs),
(948,607,o)
);
}
);
vertWidth = 1000;
width = 1000;
}
);
note = glyph08471;
},
{
glyphname = parenleft.full;
lastChange = "2023-08-27 07:24:43 +0000";
layers = (
{
layerId = m01;
shapes = (
{
closed = 1;
nodes = (
(848,-88,qs),
(854,-88,o),
(859,-74,o),
(854,-69,qs),
(657,105,o),
(657,615,o),
(854,789,qs),
(859,794,o),
(855,808,o),
(848,808,qs),
(821,808,o),
(800,789,qs),
(608,615,o),
(608,105,o),
(800,-69,qs),
(821,-88,o)
);
}
);
vertWidth = 1000;
width = 1000;
}
);
note = uniFF08;
unicode = 65288;
},
{
glyphname = parenright.full;
lastChange = "2023-08-27 07:24:43 +0000";
layers = (
{
layerId = m01;
shapes = (
{
closed = 1;
nodes = (
(145,-88,o),
(152,-88,qs),
(179,-88,o),
(200,-69,qs),
(392,105,o),
(392,615,o),
(200,789,qs),
(179,808,o),
(152,808,qs),
(146,808,o),
(141,794,o),
(146,789,qs),
(343,615,o),
(343,105,o),
(146,-69,qs),
(141,-74,o)
);
}
);
vertWidth = 1000;
width = 1000;
}
);
note = uniFF09;
unicode = 65289;
},
{
glyphname = tortoiseshellbracketleft.vert;
lastChange = "2023-08-27 07:24:43 +0000";
layers = (
{
layerId = m01;
shapes = (
{
closed = 1;
nodes = (
(53,-4,o),
(62,-17,o),
(69,-17,qs),
(90,-17,o),
(97,3,qs),
(190,259,ls),
(193,267,o),
(201,267,qs),
(799,267,ls),
(807,267,o),
(810,259,qs),
(903,3,ls),
(910,-17,o),
(931,-17,qs),
(938,-17,o),
(947,-4,o),
(945,3,qs),
(853,260,ls),
(845,284,o),
(803,313,o),
(777,313,qs),
(223,313,ls),
(197,313,o),
(155,284,o),
(147,260,qs),
(55,3,ls)
);
}
);
vertWidth = 1000;
width = 1000;
}
);
note = glyph08479;
},
{
glyphname = tortoiseshellbracketright.vert;
lastChange = "2023-08-27 07:24:43 +0000";
layers = (
{
layerId = m01;
shapes = (
{
closed = 1;
nodes = (
(90,737,o),
(69,737,qs),
(62,737,o),
(53,724,o),
(55,717,qs),
(147,460,ls),
(155,436,o),
(197,407,o),
(223,407,qs),
(777,407,ls),
(803,407,o),
(845,436,o),
(853,460,qs),
(945,717,ls),
(947,724,o),
(938,737,o),
(931,737,qs),
(910,737,o),
(903,717,qs),
(810,461,ls),
(807,453,o),
(799,453,qs),
(201,453,ls),
(193,453,o),
(190,461,qs),
(97,717,ls)
);
}
);
vertWidth = 1000;
width = 1000;
}
);
note = glyph08480;
},
{
glyphname = whitecornerbracketleft.vert;
lastChange = "2023-08-27 07:24:43 +0000";
layers = (
{
layerId = m01;
shapes = (
{
closed = 1;
nodes = (
(928,286,qs),
(928,-30,ls),
(928,-38,o),
(920,-38,qs),
(865,-38,ls),
(857,-38,o),
(857,-30,qs),
(857,167,ls),
(857,190,o),
(823,223,o),
(800,223,qs),
(217,223,ls),
(208,223,o),
(208,232,qs),
(208,286,ls),
(208,295,o),
(217,295,qs),
(920,295,ls),
(928,295,o)
);
},
{
closed = 1;
nodes = (
(175,224,o),
(209,190,o),
(232,190,qs),
(815,190,ls),
(823,190,o),
(823,181,qs),
(823,-15,ls),
(823,-38,o),
(857,-72,o),
(880,-72,qs),
(905,-72,ls),
(928,-72,o),
(962,-38,o),
(962,-15,qs),
(962,272,ls),
(962,295,o),
(928,328,o),
(905,328,qs),
(232,328,ls),
(209,328,o),
(175,295,o),
(175,272,qs),
(175,247,ls)
);
}
);
vertWidth = 1000;
width = 1000;
}
);
note = glyph08474;
},
{
glyphname = whitecornerbracketright.vert;
lastChange = "2023-08-27 07:24:43 +0000";
layers = (
{
layerId = m01;
shapes = (
{
closed = 1;
nodes = (
(143,750,qs),
(143,553,ls),
(143,530,o),
(177,497,o),
(200,497,qs),
(783,497,ls),
(792,497,o),
(792,488,qs),
(792,434,ls),
(792,425,o),
(783,425,qs),
(80,425,ls),
(72,425,o),
(72,434,qs),
(72,750,ls),
(72,758,o),
(80,758,qs),
(135,758,ls),
(143,758,o)
);
},
{
closed = 1;
nodes = (
(38,425,o),
(72,392,o),
(95,392,qs),
(768,392,ls),
(791,392,o),
(825,425,o),
(825,448,qs),
(825,473,ls),
(825,496,o),
(791,530,o),
(768,530,qs),
(185,530,ls),
(177,530,o),
(177,539,qs),
(177,735,ls),
(177,758,o),
(143,792,o),
(120,792,qs),
(95,792,ls),
(72,792,o),
(38,758,o),
(38,735,qs),
(38,448,ls)
);
}
);
vertWidth = 1000;
width = 1000;
}
);
note = glyph08475;
},
{
glyphname = whitelenticularbracketleft.vert;
lastChange = "2023-08-27 07:24:43 +0000";
layers = (
{
layerId = m01;
shapes = (
{
closed = 1;
nodes = (
(914,231,qs),
(914,36,ls),
(914,28,o),
(907,33,qs),
(727,172,o),
(273,172,o),
(93,33,q),
(91,32,o),
(86,34,o),
(86,36,qs),
(86,231,ls),
(86,240,o),
(94,240,qs),
(906,240,ls),
(914,240,o)
);
},
{
closed = 1;
nodes = (
(52,-1,o),
(83,-14,o),
(96,-3,qs),
(271,138,o),
(500,138,qs),
(730,138,o),
(905,-3,qs),
(918,-14,o),
(948,-1,o),
(948,15,qs),
(948,217,ls),
(948,240,o),
(914,273,o),
(891,273,qs),
(109,273,ls),
(86,273,o),
(52,240,o),
(52,217,qs),
(52,15,ls)
);
}
);
vertWidth = 1000;
width = 1000;
}
);
note = glyph08481;
},
{
glyphname = whitelenticularbracketright.vert;
lastChange = "2023-08-27 07:24:43 +0000";
layers = (
{
layerId = m01;
shapes = (
{
closed = 1;
nodes = (
(727,548,o),
(907,687,q),
(909,688,o),
(914,686,o),
(914,684,qs),
(914,489,ls),
(914,480,o),
(906,480,qs),
(94,480,ls),
(86,480,o),
(86,489,qs),
(86,684,ls),
(86,692,o),
(93,687,qs),
(273,548,o)
);
},
{
closed = 1;
nodes = (
(52,480,o),
(86,447,o),
(109,447,qs),
(891,447,ls),
(914,447,o),
(948,480,o),
(948,503,qs),
(948,705,ls),
(948,721,o),
(917,734,o),
(904,723,qs),
(729,582,o),
(500,582,qs),
(270,582,o),
(95,723,qs),
(82,734,o),
(52,721,o),
(52,705,qs),
(52,503,ls)
);
}
);
vertWidth = 1000;
width = 1000;
}
);
note = glyph08482;
},
{
glyphname = braceleft.full.vert;
lastChange = "2023-08-27 07:24:43 +0000";
layers = (
{
layerId = m01;
shapes = (
{
closed = 1;
nodes = (
(646,208,qs),
(792,208,ls),
(861,208,o),
(908,162,o),
(908,110,qs),
(908,-13,ls),
(908,-21,o),
(920,-33,o),
(936,-33,o),
(948,-21,o),
(948,-13,qs),
(948,127,ls),
(948,194,o),
(879,255,o),
(802,255,qs),
(648,255,ls),
(588,255,o),
(521,299,o),
(521,337,qs),
(521,392,ls),
(521,401,o),
(509,413,o),
(491,413,o),
(479,401,o),
(479,392,qs),
(479,337,ls),
(479,299,o),
(412,255,o),
(352,255,qs),
(198,255,ls),
(121,255,o),
(52,194,o),
(52,127,qs),
(52,-13,ls),
(52,-21,o),
(64,-33,o),
(80,-33,o),
(92,-21,o),
(92,-13,qs),
(92,110,ls),
(92,162,o),
(139,208,o),
(208,208,qs),
(354,208,ls),
(462,208,o),
(498,279,q),
(498,280,o),
(502,280,o),
(502,279,q),
(538,208,o)
);
}
);
vertWidth = 1000;
width = 1000;
}
);
note = glyph08522;
},
{
glyphname = braceright.full.vert;
lastChange = "2023-08-27 07:24:43 +0000";
layers = (
{
layerId = m01;
shapes = (
{
closed = 1;
nodes = (
(354,512,qs),
(208,512,ls),
(139,512,o),
(92,558,o),
(92,610,qs),
(92,733,ls),
(92,741,o),
(80,753,o),
(64,753,o),
(52,741,o),
(52,733,qs),
(52,593,ls),
(52,526,o),
(121,465,o),
(198,465,qs),
(352,465,ls),
(412,465,o),
(479,421,o),
(479,383,qs),
(479,328,ls),
(479,319,o),
(491,307,o),
(509,307,o),
(521,319,o),
(521,328,qs),
(521,383,ls),
(521,421,o),
(588,465,o),
(648,465,qs),
(802,465,ls),
(879,465,o),
(948,526,o),
(948,593,qs),
(948,733,ls),
(948,741,o),
(936,753,o),
(920,753,o),
(908,741,o),
(908,733,qs),
(908,610,ls),
(908,558,o),
(861,512,o),
(792,512,qs),
(646,512,ls),
(538,512,o),
(502,441,q),
(502,440,o),
(498,440,o),
(498,441,q),
(462,512,o)
);
}
);
vertWidth = 1000;
width = 1000;
}
);
note = glyph08523;
},
{
glyphname = bracketleft.full.vert;
lastChange = "2023-08-27 07:24:43 +0000";
layers = (
{
layerId = m01;
shapes = (
{
closed = 1;
nodes = (
(52,-5,o),
(64,-17,o),
(80,-17,o),
(92,-5,o),
(92,3,qs),
(92,258,ls),
(92,267,o),
(101,267,qs),
(899,267,ls),
(908,267,o),
(908,258,qs),
(908,3,ls),
(908,-5,o),
(920,-17,o),
(936,-17,o),
(948,-5,o),
(948,3,qs),
(948,257,ls),
(948,280,o),
(914,313,o),
(891,313,qs),
(109,313,ls),
(86,313,o),
(52,280,o),
(52,257,qs),
(52,3,ls)
);
}
);
vertWidth = 1000;
width = 1000;
}
);
note = glyph08520;
},
{
glyphname = bracketright.full.vert;
lastChange = "2023-08-27 07:24:43 +0000";
layers = (
{
layerId = m01;
shapes = (
{
closed = 1;
nodes = (
(92,725,o),
(80,737,o),
(64,737,o),
(52,725,o),
(52,717,qs),
(52,463,ls),
(52,440,o),
(86,407,o),
(109,407,qs),
(891,407,ls),
(914,407,o),
(947,440,o),
(947,463,qs),
(947,717,ls),
(947,725,o),
(935,737,o),
(919,737,o),
(907,725,o),
(907,717,qs),
(907,462,ls),
(907,453,o),
(899,453,qs),
(101,453,ls),
(92,453,o),
(92,462,qs),
(92,717,ls)
);
}
);
vertWidth = 1000;
width = 1000;
}
);
note = glyph08521;
},
{
glyphname = parenleft.full.vert;
lastChange = "2023-08-27 07:24:43 +0000";
layers = (
{
layerId = m01;
shapes = (
{
closed = 1;
nodes = (
(52,12,qs),
(52,6,o),
(66,1,o),
(71,6,qs),
(245,203,o),
(755,203,o),
(929,6,qs),
(934,1,o),
(948,5,o),
(948,12,qs),
(948,39,o),
(929,60,qs),
(755,252,o),
(245,252,o),
(71,60,qs),
(52,39,o)
);
}
);
vertWidth = 1000;
width = 1000;
}
);
note = glyph08516;
},
{
glyphname = parenright.full.vert;
lastChange = "2023-08-27 07:24:43 +0000";
layers = (
{
layerId = m01;
shapes = (
{
closed = 1;
nodes = (
(52,715,o),
(52,708,qs),
(52,681,o),
(71,660,qs),
(245,468,o),
(755,468,o),
(929,660,qs),
(948,681,o),
(948,708,qs),
(948,714,o),
(934,719,o),
(929,714,qs),
(755,517,o),
(245,517,o),
(71,714,qs),
(66,719,o)
);
}
